<svg width="28" height="23" viewBox="0 0 28 23" fill="none" xmlns="http://www.w3.org/2000/svg">
<path d="M27 2.95C27 2.43283 26.7946 1.93684 26.4289 1.57114C26.0632 1.20545 25.5672 1 25.05 1H2.95C2.43283 1 1.93684 1.20545 1.57114 1.57114C1.20545 1.93684 1 2.43283 1 2.95V8.8H27V2.95Z" stroke="#40B2F2" stroke-width="2" stroke-linecap="round" stroke-linejoin="round"/>
<path d="M1.07156 21.17L8.98596 13.175L13.263 17.27L18.4903 12.7005L21.4023 15.5397" stroke="#40B2F2" stroke-width="2" stroke-linecap="round" stroke-linejoin="round"/>
<path d="M26.9982 7.5V19.85C26.9982 20.3672 26.7927 20.8632 26.427 21.2289C26.0613 21.5946 25.5653 21.8 25.0482 21.8H6.19815" stroke="#40B2F2" stroke-width="2" stroke-linecap="round" stroke-linejoin="round"/>
<path d="M10.8216 4.89977H22.5216" stroke="#40B2F2" stroke-width="2" stroke-linecap="round" stroke-linejoin="round"/>
<path d="M5.61877 4.89977H6.91877" stroke="#40B2F2" stroke-width="2" stroke-linecap="round" stroke-linejoin="round"/>
<path d="M1 7.5V13.35" stroke="#40B2F2" stroke-width="2" stroke-linecap="round" stroke-linejoin="round"/>
</svg>
