<svg width="18" height="16" viewBox="0 0 18 16" fill="none" xmlns="http://www.w3.org/2000/svg">
<path d="M9.46164 1.72349C9.46164 0.126197 7.47469 -0.60837 6.43477 0.60444L3.30297 4.25835C3.22222 4.35277 3.12196 4.42857 3.00912 4.48054C2.89627 4.53251 2.7735 4.55941 2.64926 4.5594H2.58045C1.89607 4.5594 1.23972 4.83127 0.755795 5.3152C0.271868 5.79913 0 6.45547 0 7.13985V8.86015C0 9.54453 0.271868 10.2009 0.755795 10.6848C1.23972 11.1687 1.89607 11.4406 2.58045 11.4406H2.64926C2.7735 11.4406 2.89627 11.4675 3.00912 11.5195C3.12196 11.5714 3.22222 11.6472 3.30297 11.7416L6.43477 15.3956C7.47469 16.6084 9.46164 15.8738 9.46164 14.2765V1.72349ZM4.60868 5.37913L7.74134 1.72263V14.2756L4.60868 10.62C4.36627 10.3376 4.06565 10.111 3.72744 9.9557C3.38923 9.8004 3.02142 9.7201 2.64926 9.7203H2.58045C2.35232 9.7203 2.13354 9.62967 1.97223 9.46837C1.81092 9.30706 1.7203 9.08827 1.7203 8.86015V7.13985C1.7203 6.91173 1.81092 6.69294 1.97223 6.53163C2.13354 6.37032 2.35232 6.2797 2.58045 6.2797H2.64926C3.02156 6.27969 3.38944 6.19912 3.72767 6.04352C4.06589 5.88792 4.36644 5.66097 4.60868 5.37827V5.37913ZM14.3094 1.35535C14.228 1.27512 14.1314 1.21192 14.0253 1.16945C13.9192 1.12697 13.8057 1.10607 13.6914 1.10796C13.5772 1.10985 13.4644 1.1345 13.3597 1.18047C13.2551 1.22644 13.1607 1.2928 13.082 1.37568C13.0033 1.45856 12.9419 1.55629 12.9014 1.66317C12.8608 1.77005 12.842 1.88393 12.8461 1.99815C12.8501 2.11238 12.8768 2.22466 12.9247 2.32844C12.9726 2.43222 13.0407 2.52541 13.125 2.60257C16.2689 5.589 16.2689 10.411 13.125 13.3974C12.9645 13.5556 12.8725 13.7705 12.8687 13.9958C12.865 14.2212 12.9499 14.439 13.1051 14.6024C13.2602 14.7658 13.4734 14.8618 13.6986 14.8697C13.9238 14.8776 14.1432 14.7968 14.3094 14.6447C18.1672 10.9804 18.1672 5.01958 14.3094 1.35535ZM11.7746 3.76377C11.6092 3.60659 11.3881 3.52155 11.16 3.52736C10.9319 3.53316 10.7155 3.62934 10.5583 3.79473C10.4011 3.96012 10.3161 4.18118 10.3219 4.40927C10.3277 4.63736 10.4239 4.8538 10.5893 5.01098C12.3328 6.66677 12.3328 9.33323 10.5893 10.989C10.4239 11.1462 10.3277 11.3626 10.3219 11.5907C10.3161 11.8188 10.4011 12.0399 10.5583 12.2053C10.7155 12.3707 10.9319 12.4668 11.16 12.4726C11.3881 12.4785 11.6092 12.3934 11.7746 12.2362C14.232 9.90179 14.232 6.09821 11.7746 3.76377Z" fill="#FFD252"/>
</svg>
