<svg width="30" height="30" viewBox="0 0 30 30" fill="none" xmlns="http://www.w3.org/2000/svg">
<path d="M9.31626 7.77229C9.23281 7.68714 9.13339 7.61927 9.0237 7.57256C8.91401 7.52584 8.79619 7.5012 8.67697 7.50004C8.55776 7.49888 8.43948 7.52122 8.3289 7.56579C8.21832 7.61036 8.1176 7.67628 8.03251 7.75979C7.06994 8.71676 6.3064 9.85486 5.78592 11.1084C5.26544 12.362 4.99834 13.7062 5.00001 15.0635C4.99845 16.4729 5.28658 17.8676 5.84651 19.161C6.40645 20.4544 7.22624 21.6189 8.25501 22.5823C8.42816 22.7423 8.65687 22.8286 8.8926 22.8228C9.12832 22.8169 9.35249 22.7195 9.51751 22.551C9.91251 22.156 9.86376 21.5273 9.48376 21.1635C8.65813 20.3767 8.00112 19.4302 7.55265 18.3816C7.10419 17.3329 6.87364 16.204 6.87501 15.0635C6.87501 12.756 7.80126 10.6635 9.30376 9.14104C9.66626 8.77229 9.70376 8.15979 9.31626 7.77229Z" fill="white"/>
<path d="M11.5175 9.97479C11.3529 9.8054 11.1278 9.70818 10.8916 9.70443C10.6555 9.70068 10.4274 9.79071 10.2575 9.95479C9.58104 10.6224 9.04413 11.4179 8.67802 12.2949C8.31192 13.172 8.12393 14.1131 8.125 15.0635C8.125 17.1773 9.0375 19.0798 10.4913 20.3935C10.6628 20.5451 10.8861 20.6249 11.1149 20.6162C11.3436 20.6076 11.5603 20.5113 11.72 20.3473C12.13 19.9373 12.0538 19.2923 11.6688 18.9298C11.1411 18.4337 10.7207 17.8346 10.4337 17.1696C10.1467 16.5046 9.99908 15.7878 10 15.0635C10 13.626 10.5713 12.321 11.5 11.3635C11.8575 10.9948 11.9163 10.3723 11.5175 9.97479Z" fill="white"/>
<path d="M18.4825 9.97479C18.6471 9.8054 18.8722 9.70818 19.1084 9.70443C19.3446 9.70068 19.5726 9.79071 19.7425 9.95479C20.419 10.6224 20.9559 11.4179 21.322 12.2949C21.6881 13.172 21.8761 14.1131 21.875 15.0635C21.875 17.1773 20.9625 19.0798 19.5088 20.3935C19.3372 20.5451 19.1139 20.6249 18.8851 20.6162C18.6564 20.6076 18.4397 20.5113 18.28 20.3473C17.87 19.9373 17.9463 19.2923 18.3313 18.9298C18.859 18.4337 19.2794 17.8346 19.5664 17.1696C19.8534 16.5046 20.001 15.7878 20 15.0635C20 13.626 19.4288 12.321 18.5 11.3635C18.1425 10.9948 18.0838 10.3723 18.4825 9.97479Z" fill="white"/>
<path d="M20.6838 7.77229C20.7672 7.68714 20.8666 7.61927 20.9763 7.57256C21.086 7.52584 21.2038 7.5012 21.3231 7.50004C21.4423 7.49888 21.5606 7.52122 21.6711 7.56579C21.7817 7.61036 21.8824 7.67628 21.9675 7.75979C22.9301 8.71676 23.6936 9.85486 24.2141 11.1084C24.7346 12.362 25.0017 13.7062 25 15.0635C25.0016 16.4729 24.7135 17.8676 24.1535 19.161C23.5936 20.4544 22.7738 21.6189 21.745 22.5823C21.5719 22.7423 21.3432 22.8286 21.1074 22.8228C20.8717 22.8169 20.6475 22.7195 20.4825 22.551C20.0875 22.156 20.1363 21.5273 20.5175 21.1635C21.3429 20.3766 21.9997 19.4301 22.4479 18.3814C22.8962 17.3328 23.1266 16.204 23.125 15.0635C23.125 12.756 22.1988 10.6635 20.6963 9.14104C20.3338 8.77229 20.2963 8.15979 20.6838 7.77229Z" fill="white"/>
<path d="M15 13.1885C14.5027 13.1885 14.0258 13.3861 13.6742 13.7377C13.3225 14.0893 13.125 14.5663 13.125 15.0635C13.125 15.5608 13.3225 16.0377 13.6742 16.3894C14.0258 16.741 14.5027 16.9385 15 16.9385C15.4973 16.9385 15.9742 16.741 16.3258 16.3894C16.6775 16.0377 16.875 15.5608 16.875 15.0635C16.875 14.5663 16.6775 14.0893 16.3258 13.7377C15.9742 13.3861 15.4973 13.1885 15 13.1885Z" fill="white"/>
</svg>
